<?xml version="1.0" encoding="UTF-8" standalone="no"?>
<!DOCTYPE svg PUBLIC "-//W3C//DTD SVG 1.1//EN" "http://www.w3.org/Graphics/SVG/1.1/DTD/svg11.dtd">
<svg width="100%" height="100%" viewBox="0 0 113 91" version="1.1" xmlns="http://www.w3.org/2000/svg" xmlns:xlink="http://www.w3.org/1999/xlink" xml:space="preserve" xmlns:serif="http://www.serif.com/" style="fill-rule:evenodd;clip-rule:evenodd;stroke-linejoin:round;stroke-miterlimit:2;">
    <g transform="matrix(1,0,0,1,-363,-504.367)">
        <g transform="matrix(1,0,0,1,-153,0)">
            <path d="M516,568C527.673,538.412 540.264,520.769 554,518C558.462,510.859 564.343,505.847 575,508C578.549,503.799 583.356,502.949 590,507L601,506L629,538L624,555L623,576C597.227,589.703 577.458,593.801 562,591C550.321,596.161 537.521,597.186 531,591C523.815,584.426 519.059,576.637 516,568Z" style="fill:rgb(172,60,35);"/>
            <path d="M523,567C535.284,539.836 546.779,523.313 557,524C562.441,515.189 568.527,513.464 575,516C578.712,511.847 583.225,510.901 589,515L599,513L622,540L619,552L613,552C614.698,543.773 604.767,531.393 592,518L588,522C597.393,532.437 604.831,542.595 607,552C603.333,555.387 599.667,556.77 596,555L576,522L572,522L571,528C577.576,539.635 583.487,552.27 588,567L579,567C579.519,557.125 572.828,545.938 562,534L558,533L557,539C564.74,551.823 568.544,564.209 567,576L600,575L600,566C604.904,560.712 611.033,559.099 618,560L616,572C592.154,583.081 571.347,590.517 563,583C550.207,589.491 541.541,590.824 537,587C529.674,582.461 525.169,575.665 523,567Z" style="fill:rgb(235,161,140);"/>
            <path d="M542,543L548,542C555.087,561.63 557.228,573.842 554,578C546.192,579.93 542.587,578.259 542,574C545.569,564.262 544.623,553.77 542,543Z" style="fill:rgb(172,60,35);"/>
        </g>
    </g>
</svg>
