<?xml version="1.0" encoding="UTF-8" standalone="no"?>
<!DOCTYPE svg PUBLIC "-//W3C//DTD SVG 1.1//EN" "http://www.w3.org/Graphics/SVG/1.1/DTD/svg11.dtd">
<svg width="100%" height="100%" viewBox="0 0 120 135" version="1.1" xmlns="http://www.w3.org/2000/svg" xmlns:xlink="http://www.w3.org/1999/xlink" xml:space="preserve" xmlns:serif="http://www.serif.com/" style="fill-rule:evenodd;clip-rule:evenodd;stroke-linecap:round;stroke-linejoin:round;stroke-miterlimit:1.5;">
    <g transform="matrix(1,0,0,1,-327.833,-287.917)">
        <g transform="matrix(1,0,0,1,-738,-483)">
            <path d="M1105,801L1127,773L1178,815L1179,856L1088,871L1105,801Z" style="stroke:black;stroke-width:4.17px;"/>
            <path d="M1087,887L1087,903L1183,887L1182,871L1087,887Z" style="stroke:black;stroke-width:4.17px;"/>
            <path d="M1070,817L1089,817L1089,796L1116,796L1116,817L1136,817L1136,846L1119,846L1119,867L1090,867L1090,845L1070,845L1070,817Z" style="fill:white;stroke:black;stroke-width:8.33px;stroke-miterlimit:2;"/>
        </g>
    </g>
</svg>
