<?xml version="1.0" encoding="UTF-8" standalone="no"?>
<!DOCTYPE svg PUBLIC "-//W3C//DTD SVG 1.1//EN" "http://www.w3.org/Graphics/SVG/1.1/DTD/svg11.dtd">
<svg width="100%" height="100%" viewBox="0 0 125 127" version="1.1" xmlns="http://www.w3.org/2000/svg" xmlns:xlink="http://www.w3.org/1999/xlink" xml:space="preserve" xmlns:serif="http://www.serif.com/" style="fill-rule:evenodd;clip-rule:evenodd;stroke-linecap:round;stroke-linejoin:round;stroke-miterlimit:2;">
    <g transform="matrix(1,0,0,1,-504.892,-298.917)">
        <g transform="matrix(1,0,0,1,-553,-690)">
            <path d="M1122.95,993.57C1120.85,992.89 1118.56,993.078 1116.59,994.091C1114.63,995.105 1113.15,996.861 1112.48,998.971C1106.61,1017.51 1092.12,1063.32 1086.39,1081.44C1085.05,1085.67 1087.27,1090.21 1091.43,1091.75C1103.68,1096.27 1128,1105.25 1140.76,1109.96C1142.9,1110.75 1145.27,1110.62 1147.32,1109.61C1149.37,1108.6 1150.91,1106.78 1151.58,1104.6C1157.48,1085.39 1171.87,1038.47 1177.6,1019.83C1178.93,1015.49 1176.53,1010.88 1172.21,1009.48C1159.76,1005.46 1135.51,997.626 1122.95,993.57Z" style="fill:none;stroke:black;stroke-width:4.17px;"/>
            <path d="M1122.95,993.57C1120.85,992.89 1118.56,993.078 1116.59,994.091C1114.63,995.105 1113.15,996.861 1112.48,998.971C1106.61,1017.51 1092.12,1063.32 1086.39,1081.44C1085.05,1085.67 1087.27,1090.21 1091.43,1091.75C1103.68,1096.27 1128,1105.25 1140.76,1109.96C1142.9,1110.75 1145.27,1110.62 1147.32,1109.61C1149.37,1108.6 1150.91,1106.78 1151.58,1104.6C1157.48,1085.39 1171.87,1038.47 1177.6,1019.83C1178.93,1015.49 1176.53,1010.88 1172.21,1009.48C1159.76,1005.46 1135.51,997.626 1122.95,993.57Z"/>
            <path d="M1089,1011L1089,1032L1070,1032L1070,1051L1088,1051L1088,1071L1108,1071L1108,1051L1127,1051L1127,1032L1109,1032L1109,1011L1089,1011Z" style="fill:none;stroke:white;stroke-width:24.22px;"/>
            <path d="M1089,1011L1089,1032L1070,1032L1070,1051L1088,1051L1088,1071L1108,1071L1108,1051L1127,1051L1127,1032L1109,1032L1109,1011L1089,1011Z"/>
        </g>
    </g>
</svg>
