<?xml version="1.0" encoding="UTF-8" standalone="no"?>
<!DOCTYPE svg PUBLIC "-//W3C//DTD SVG 1.1//EN" "http://www.w3.org/Graphics/SVG/1.1/DTD/svg11.dtd">
<svg width="100%" height="100%" viewBox="0 0 122 139" version="1.1" xmlns="http://www.w3.org/2000/svg" xmlns:xlink="http://www.w3.org/1999/xlink" xml:space="preserve" xmlns:serif="http://www.serif.com/" style="fill-rule:evenodd;clip-rule:evenodd;stroke-linecap:round;stroke-linejoin:round;stroke-miterlimit:2;">
    <g transform="matrix(1,0,0,1,-308.833,-284.833)">
        <g id="Acceleration" transform="matrix(1,0,0,1,-757,-484)">
            <path d="M1105,801L1127,773L1178,815L1179,856L1088,871L1105,801Z" style="fill:rgb(166,30,34);"/>
            <path d="M1101.72,798.426C1101.36,798.895 1101.09,799.437 1100.95,800.017L1083.95,870.017C1083.62,871.375 1084,872.809 1084.95,873.834C1085.9,874.859 1087.3,875.339 1088.68,875.111L1179.68,860.111C1181.73,859.773 1183.22,857.976 1183.16,855.898L1182.16,814.898C1182.14,813.689 1181.58,812.553 1180.65,811.784L1129.65,769.784C1128.78,769.071 1127.67,768.737 1126.55,768.858C1125.44,768.978 1124.42,769.544 1123.72,770.426L1101.72,798.426ZM1105,801L1127,773L1178,815L1179,856L1088,871L1105,801Z" style="fill:white;"/>
            <path d="M1087,887L1087,903L1183,887L1182,871L1087,887Z" style="fill:rgb(166,30,34);"/>
            <path d="M1086.31,882.891C1084.3,883.229 1082.83,884.966 1082.83,887L1082.83,903C1082.83,904.225 1083.37,905.388 1084.31,906.179C1085.24,906.971 1086.48,907.311 1087.68,907.11L1183.68,891.11C1185.79,890.759 1187.29,888.872 1187.16,886.74L1186.16,870.74C1186.09,869.562 1185.52,868.47 1184.59,867.736C1183.66,867.002 1182.47,866.695 1181.31,866.891L1086.31,882.891ZM1087,887L1087,903L1183,887L1182,871L1087,887Z" style="fill:white;"/>
            <path d="M1070,817L1089,817L1089,796L1116,796L1116,817L1136,817L1136,846L1119,846L1119,867L1090,867L1090,845L1070,845L1070,817Z" style="fill:rgb(166,30,34);stroke:white;stroke-width:8.33px;"/>
        </g>
    </g>
</svg>
