<?xml version="1.0" encoding="UTF-8" standalone="no"?>
<!DOCTYPE svg PUBLIC "-//W3C//DTD SVG 1.1//EN" "http://www.w3.org/Graphics/SVG/1.1/DTD/svg11.dtd">
<svg width="100%" height="100%" viewBox="0 0 127 131" version="1.1" xmlns="http://www.w3.org/2000/svg" xmlns:xlink="http://www.w3.org/1999/xlink" xml:space="preserve" xmlns:serif="http://www.serif.com/" style="fill-rule:evenodd;clip-rule:evenodd;stroke-linecap:round;stroke-linejoin:round;stroke-miterlimit:2;">
    <g transform="matrix(1,0,0,1,-439.892,-291.833)">
        <g transform="matrix(1,0,0,1,-618,-695)">
            <path d="M1124.24,989.605C1121.08,988.584 1117.64,988.866 1114.68,990.388C1111.73,991.91 1109.51,994.547 1108.51,997.714C1102.64,1016.25 1088.15,1062.06 1082.42,1080.19C1080.41,1086.54 1083.74,1093.35 1089.99,1095.65C1102.24,1100.17 1126.56,1109.16 1139.31,1113.87C1142.53,1115.05 1146.1,1114.86 1149.17,1113.34C1152.24,1111.82 1154.56,1109.1 1155.56,1105.82C1161.46,1086.61 1175.86,1039.7 1181.58,1021.05C1183.58,1014.53 1179.98,1007.61 1173.49,1005.52L1124.24,989.605ZM1122.95,993.57C1120.85,992.89 1118.56,993.078 1116.59,994.091C1114.63,995.105 1113.15,996.861 1112.48,998.971C1106.61,1017.51 1092.12,1063.32 1086.39,1081.44C1085.05,1085.67 1087.27,1090.21 1091.43,1091.75C1103.68,1096.27 1128,1105.25 1140.76,1109.96C1142.9,1110.75 1145.27,1110.62 1147.32,1109.61C1149.37,1108.6 1150.91,1106.78 1151.58,1104.6C1157.48,1085.39 1171.87,1038.47 1177.6,1019.83C1178.93,1015.49 1176.53,1010.88 1172.21,1009.48C1159.76,1005.46 1135.51,997.626 1122.95,993.57Z" style="fill:white;"/>
            <path d="M1122.95,993.57C1120.85,992.89 1118.56,993.078 1116.59,994.091C1114.63,995.105 1113.15,996.861 1112.48,998.971C1106.61,1017.51 1092.12,1063.32 1086.39,1081.44C1085.05,1085.67 1087.27,1090.21 1091.43,1091.75C1103.68,1096.27 1128,1105.25 1140.76,1109.96C1142.9,1110.75 1145.27,1110.62 1147.32,1109.61C1149.37,1108.6 1150.91,1106.78 1151.58,1104.6C1157.48,1085.39 1171.87,1038.47 1177.6,1019.83C1178.93,1015.49 1176.53,1010.88 1172.21,1009.48C1159.76,1005.46 1135.51,997.626 1122.95,993.57Z" style="fill:rgb(166,30,34);"/>
            <path d="M1089,1011L1089,1032L1070,1032L1070,1051L1088,1051L1088,1071L1108,1071L1108,1051L1127,1051L1127,1032L1109,1032L1109,1011L1089,1011Z" style="fill:none;stroke:white;stroke-width:24.22px;"/>
            <path d="M1089,1011L1089,1032L1070,1032L1070,1051L1088,1051L1088,1071L1108,1071L1108,1051L1127,1051L1127,1032L1109,1032L1109,1011L1089,1011Z" style="fill:rgb(166,30,34);"/>
        </g>
    </g>
</svg>
