<?xml version="1.0" encoding="UTF-8" standalone="no"?>
<!DOCTYPE svg PUBLIC "-//W3C//DTD SVG 1.1//EN" "http://www.w3.org/Graphics/SVG/1.1/DTD/svg11.dtd">
<svg width="100%" height="100%" viewBox="0 0 101 107" version="1.1" xmlns="http://www.w3.org/2000/svg" xmlns:xlink="http://www.w3.org/1999/xlink" xml:space="preserve" xmlns:serif="http://www.serif.com/" style="fill-rule:evenodd;clip-rule:evenodd;stroke-linejoin:round;stroke-miterlimit:2;">
    <g transform="matrix(1,0,0,1,-168.555,-652.903)">
        <g transform="matrix(1,0,0,1,-66.8118,-12.2)">
            <path d="M335.685,665.103L252.721,712.511L269.002,724.151L264.997,728.807L248.277,716.32L235.367,771.135L328.277,750.183L298.224,740.87L325.738,715.262L307.113,705.103L335.685,665.103Z" style="fill:rgb(140,112,37);"/>
            <path d="M335.685,665.103L252.721,712.511L269.002,724.151L264.997,728.807L248.277,716.32L235.367,771.135L328.277,750.183L298.224,740.87L325.738,715.262L307.113,705.103L335.685,665.103ZM321.241,678.155L300.989,706.509L318.667,716.151C318.667,716.151 290.12,742.721 290.12,742.721L312.151,749.548C312.151,749.548 240.95,765.605 240.95,765.605C240.95,765.605 250.876,723.461 250.876,723.461C250.876,723.461 265.619,734.472 265.619,734.472L275.133,723.412L260.434,712.903L321.241,678.155Z" style="fill:rgb(251,198,64);"/>
        </g>
    </g>
</svg>
