<?xml version="1.0" encoding="UTF-8" standalone="no"?>
<!DOCTYPE svg PUBLIC "-//W3C//DTD SVG 1.1//EN" "http://www.w3.org/Graphics/SVG/1.1/DTD/svg11.dtd">
<svg width="100%" height="100%" viewBox="0 0 155 122" version="1.1" xmlns="http://www.w3.org/2000/svg" xmlns:xlink="http://www.w3.org/1999/xlink" xml:space="preserve" xmlns:serif="http://www.serif.com/" style="fill-rule:evenodd;clip-rule:evenodd;stroke-linejoin:round;stroke-miterlimit:2;">
    <g transform="matrix(1,0,0,1,-592.366,-466.218)">
        <g id="Amplification">
            <path d="M619,475C639.443,478.337 660.169,482.828 679,491C698.223,478.678 718.165,472.817 739,475C731.235,493.284 714.661,507.164 694,519C694.042,540.75 687.017,560.473 679,579C665.431,558.858 662.672,534.918 662,518C645.157,503.829 631.007,494.007 619,475Z" style="fill:rgb(166,30,34);"/>
            <path d="M620.343,466.776C617.106,466.247 613.86,467.666 612.051,470.401C610.241,473.136 610.203,476.678 611.955,479.451C623.798,498.198 637.532,508.48 653.852,522.05C654.864,539.856 658.514,563.505 672.089,583.656C673.79,586.182 676.735,587.578 679.767,587.298C682.8,587.017 685.439,585.105 686.648,582.309C694.506,564.15 701.342,544.872 702.235,523.826C722.694,511.49 738.771,496.859 746.67,478.257C747.703,475.825 747.521,473.047 746.18,470.77C744.838,468.493 742.497,466.987 739.868,466.712C718.538,464.477 698.032,469.855 678.259,481.659C659.908,474.271 640.005,469.985 620.343,466.776ZM619,475C639.443,478.337 660.169,482.828 679,491C698.223,478.678 718.165,472.817 739,475C731.235,493.284 714.661,507.164 694,519C694.042,540.75 687.017,560.473 679,579C665.431,558.858 662.672,534.918 662,518C645.157,503.829 631.007,494.007 619,475Z" style="fill:white;"/>
            <path d="M611,521L611,540L629,540L629,558L652,558L652,540L667,540L667,521L651,521L651,503L630,503L630,521L611,521Z" style="fill:rgb(166,30,34);"/>
            <path d="M611,512.667L602.667,512.667L602.667,548.333L620.667,548.333C620.667,548.333 620.667,566.333 620.667,566.333L660.333,566.333L660.333,548.333C660.333,548.333 675.333,548.333 675.333,548.333L675.333,512.667L659.333,512.667C659.333,512.667 659.333,494.667 659.333,494.667L621.667,494.667L621.667,512.667C621.667,512.667 611,512.667 611,512.667ZM611,521L611,540L629,540L629,558L652,558L652,540L667,540L667,521L651,521L651,503L630,503L630,521L611,521Z" style="fill:white;"/>
        </g>
    </g>
</svg>
