<?xml version="1.0" encoding="UTF-8" standalone="no"?>
<!DOCTYPE svg PUBLIC "-//W3C//DTD SVG 1.1//EN" "http://www.w3.org/Graphics/SVG/1.1/DTD/svg11.dtd">
<svg width="100%" height="100%" viewBox="0 0 112 119" version="1.1" xmlns="http://www.w3.org/2000/svg" xmlns:xlink="http://www.w3.org/1999/xlink" xml:space="preserve" xmlns:serif="http://www.serif.com/" style="fill-rule:evenodd;clip-rule:evenodd;stroke-linejoin:round;stroke-miterlimit:2;">
    <g transform="matrix(1,0,0,1,-367,-640)">
        <g id="Librre" transform="matrix(1,0,0,1,-138,-20)">
            <path d="M548,660L539,695L505,707L533,733L529,769L560,753L588,779L591,744L617,736L591,715L599,689L574,690L548,660Z" style="fill:rgb(13,112,58);"/>
            <path d="M551,673L545,699L560,709L518,711L539,730L536,755L567,723L561,745L583,764L577,723L587,738L605,733L582,716L588,698L575,697L571,704L551,673Z" style="fill:rgb(56,181,105);"/>
        </g>
    </g>
</svg>
