<?xml version="1.0" encoding="UTF-8" standalone="no"?>
<!DOCTYPE svg PUBLIC "-//W3C//DTD SVG 1.1//EN" "http://www.w3.org/Graphics/SVG/1.1/DTD/svg11.dtd">
<svg width="100%" height="100%" viewBox="0 0 162 127" version="1.1" xmlns="http://www.w3.org/2000/svg" xmlns:xlink="http://www.w3.org/1999/xlink" xml:space="preserve" xmlns:serif="http://www.serif.com/" style="fill-rule:evenodd;clip-rule:evenodd;stroke-linejoin:round;stroke-miterlimit:2;">
    <g transform="matrix(1,0,0,1,-106.833,-295.833)">
        <g id="Crise" transform="matrix(1,0,0,1,-937,-261)">
            <path d="M1104,561L1150,561L1142,634L1117,634L1104,561Z" style="fill:rgb(166,30,34);"/>
            <path d="M1104,556.833C1102.77,556.833 1101.6,557.379 1100.81,558.324C1100.01,559.27 1099.68,560.517 1099.9,561.731L1112.9,634.731C1113.25,636.719 1114.98,638.167 1117,638.167L1142,638.167C1144.13,638.167 1145.91,636.567 1146.14,634.454L1154.14,561.454C1154.27,560.277 1153.89,559.101 1153.1,558.219C1152.31,557.337 1151.18,556.833 1150,556.833L1104,556.833ZM1104,561L1150,561L1142,634L1117,634L1104,561Z" style="fill:white;"/>
            <path d="M1176,583L1155,600L1148,643C1155.91,652.578 1156.81,663.471 1154,678L1190,676L1173,661L1201,630L1159,629L1176,583Z" style="fill:rgb(166,30,34);"/>
            <path d="M1179.91,584.444C1180.56,582.685 1179.95,580.707 1178.43,579.614C1176.9,578.521 1174.84,578.581 1173.38,579.761L1152.38,596.761C1151.58,597.406 1151.05,598.32 1150.89,599.331L1143.89,642.331C1143.69,643.516 1144.02,644.728 1144.79,645.654C1151.91,654.276 1152.44,664.129 1149.91,677.208C1149.66,678.469 1150.02,679.772 1150.86,680.74C1151.7,681.707 1152.95,682.231 1154.23,682.16L1190.23,680.16C1191.92,680.066 1193.38,678.962 1193.94,677.365C1194.49,675.768 1194.02,673.994 1192.76,672.876L1178.92,660.665C1178.92,660.665 1204.09,632.793 1204.09,632.793C1205.18,631.584 1205.47,629.85 1204.83,628.354C1204.18,626.857 1202.73,625.873 1201.1,625.835L1164.93,624.973C1164.93,624.973 1179.91,584.444 1179.91,584.444ZM1176,583L1155,600L1148,643C1155.91,652.578 1156.81,663.471 1154,678L1190,676L1173,661L1201,630L1159,629L1176,583Z" style="fill:white;"/>
            <path d="M1075,600L1103,616L1109,643C1101.68,651.62 1097.59,663.254 1101,676L1048,663L1086,648L1074,637L1093,638L1075,600Z" style="fill:rgb(166,30,34);"/>
            <path d="M1077.07,596.382C1075.49,595.479 1073.5,595.706 1072.17,596.943C1070.83,598.179 1070.45,600.139 1071.23,601.784L1086.25,633.472C1086.25,633.472 1074.22,632.839 1074.22,632.839C1072.46,632.747 1070.84,633.767 1070.16,635.388C1069.48,637.009 1069.89,638.883 1071.18,640.071L1078.27,646.57C1078.27,646.57 1046.47,659.124 1046.47,659.124C1044.78,659.79 1043.72,661.472 1043.84,663.282C1043.97,665.092 1045.25,666.615 1047.01,667.047L1100.01,680.047C1101.44,680.397 1102.95,679.968 1103.98,678.916C1105.01,677.864 1105.41,676.347 1105.03,674.924C1102.01,663.63 1105.69,653.336 1112.18,645.697C1113.02,644.703 1113.35,643.37 1113.07,642.096L1107.07,615.096C1106.81,613.95 1106.09,612.965 1105.07,612.382L1077.07,596.382ZM1075,600L1103,616L1109,643C1101.68,651.62 1097.59,663.254 1101,676L1048,663L1086,648L1074,637L1093,638L1075,600Z" style="fill:white;"/>
            <ellipse cx="1129" cy="665.5" rx="17" ry="13.5" style="fill:rgb(166,30,34);"/>
            <path d="M1129,647.833C1117.08,647.833 1107.83,656.037 1107.83,665.5C1107.83,674.963 1117.08,683.167 1129,683.167C1140.92,683.167 1150.17,674.963 1150.17,665.5C1150.17,656.037 1140.92,647.833 1129,647.833ZM1129,652C1138.38,652 1146,658.049 1146,665.5C1146,672.951 1138.38,679 1129,679C1119.62,679 1112,672.951 1112,665.5C1112,658.049 1119.62,652 1129,652Z" style="fill:white;"/>
        </g>
    </g>
</svg>
