<?xml version="1.0" encoding="UTF-8" standalone="no"?>
<!DOCTYPE svg PUBLIC "-//W3C//DTD SVG 1.1//EN" "http://www.w3.org/Graphics/SVG/1.1/DTD/svg11.dtd">
<svg width="100%" height="100%" viewBox="0 0 124 116" version="1.1" xmlns="http://www.w3.org/2000/svg" xmlns:xlink="http://www.w3.org/1999/xlink" xml:space="preserve" xmlns:serif="http://www.serif.com/" style="fill-rule:evenodd;clip-rule:evenodd;stroke-linejoin:round;stroke-miterlimit:2;">
    <g transform="matrix(1,0,0,1,-743,-304)">
        <path d="M743,376C767.747,356.67 782.652,337.283 783,304C798.136,332.325 828.91,337.088 861,314C834.795,343.084 836.795,369.751 867,394C830.768,385.835 810.057,390.872 800,420C792.574,391.933 772.99,379.892 743,376Z" style="fill:white;"/>
        <path d="M743,376C767.747,356.67 782.652,337.283 783,304C798.136,332.325 828.91,337.088 861,314C834.795,343.084 836.795,369.751 867,394C830.768,385.835 810.057,390.872 800,420C792.574,391.933 772.99,379.892 743,376ZM772.991,368.422C781.937,358.598 788.629,347.976 792.758,335.459C799.154,339.29 806.197,341.715 813.681,342.731C818.612,343.4 823.787,343.435 829.139,342.786C828.223,347.568 827.957,352.279 828.304,356.904C828.794,363.435 830.511,369.924 833.548,376.314C824.41,377.09 816.608,379.444 809.999,383.403C807.05,385.17 804.285,387.254 801.715,389.691C794.455,380.054 784.86,373.146 772.991,368.422L772.991,368.422Z" style="fill:rgb(166,30,34);"/>
    </g>
</svg>
